<?xml version="1.0" encoding="utf-8" ?>
<!DOCTYPE svg PUBLIC "-//W3C//DTD SVG 1.1//EN" "http://www.w3.org/Graphics/SVG/1.1/DTD/svg11.dtd">
<svg xmlns="http://www.w3.org/2000/svg" xmlns:xlink="http://www.w3.org/1999/xlink" id="Layer_1" x="0px" y="0px" viewBox="0 0 482 278.8" style="enable-background:new 0 0 482 278.8;" xml:space="preserve"><style type="text/css">.st0{fill:#FFFFFF;} .st1{fill:#666666;} .st2{fill:#666766;}</style><g id="Layer_1_00000023249824771283475090000001921750315672652442_"><rect y="0.4" width="482" height="278.8"/></g><g id="Isolation_Mode"><g><g><g id="Layer_2_00000153701532584788945240000017802533483325492644_"><path class="st0" d="M272.6,80.9c-22.2,0-40.2,18-40.2,40.2s18,40.2,40.2,40.2s40.2-18,40.2-40.2l0,0l0,0 C312.8,98.9,294.8,80.9,272.6,80.9z M272.6,146.2c-13.9,0-25.1-11.3-25.1-25.1S258.7,96,272.6,96s25.1,11.3,25.1,25.1l0,0 C297.7,135,286.5,146.2,272.6,146.2L272.6,146.2z"/><path class="st0" d="M217,81c-1.4-0.2-2.7-0.2-4.1-0.2c-0.7,0-1.3,0-2,0s-1.3,0.1-2,0.1c-2.7,0.2-5.4,0.7-8,1.4 c-5.4,1.4-10.4,4-14.8,7.4c-4.5,3.5-8,8.1-10.4,13.3c-1.2,2.6-2.1,5.3-2.7,8.1c-0.3,1.4-0.5,2.8-0.6,4.2c0,0.7-0.1,1.4-0.1,2.1 v1v1v13.5v13.5l0.1,13.5h15.1l0.1-13.5v-13.5v-13.5v-0.8v-0.7c0-0.4,0.1-0.8,0.1-1.3c0.1-0.8,0.2-1.7,0.4-2.5 c0.3-1.6,0.8-3.2,1.5-4.7c1.4-3,3.5-5.6,6.1-7.7c2.7-2.2,5.8-3.7,9.1-4.6c1.7-0.5,3.5-0.8,5.2-0.9c0.5,0,0.9-0.1,1.3-0.1 s0.9,0,1.3,0c0.8,0,1.7,0,2.6,0.1c3.4,0.3,6.7,1.4,9.8,3.1l7.5-13.1C227.9,83.4,222.5,81.6,217,81z"/><path class="st0" d="M120.7,80.7c-22.2-0.2-40.4,17.7-40.6,39.9S97.8,161,120,161.2h14v-15.1h-13.2 c-13.9,0.2-25.3-10.9-25.4-24.9s10.9-25.3,24.9-25.4l0,0c0.2,0,0.4,0,0.6,0c13.9,0,25.1,11.3,25.2,25.1l0,0v37l0,0 c0,13.8-11.2,25-24.9,25.1c-6.6,0-12.9-2.7-17.5-7.4L93,186.3c7.4,7.4,17.4,11.7,27.9,11.8h0.5c21.9-0.3,39.5-18.1,39.7-40.1 v-38.2C160.4,98.1,142.5,80.7,120.7,80.7z"/><path class="st0" d="M361.4,80.9c-22.2,0-40.2,18-40.2,40.2s18,40.2,40.2,40.2h13.8v-15.1h-13.8c-13.9,0-25.1-11.3-25.1-25.1 S347.5,96,361.4,96c13,0,23.9,10,25.1,23l0,0v77.2h15.1v-75.1l0,0C401.5,98.9,383.6,80.9,361.4,80.9z"/></g></g><g><path class="st1" d="M441.2,199.3L441.2,199.3c21.6,0,39.2,17.6,39.2,39.2s-17.6,39.2-39.2,39.2S402,260.1,402,238.5 S419.6,199.3,441.2,199.3 M441.2,264.7c14.4,0,26.1-11.7,26.1-26.1c0-14.4-11.7-26.1-26.1-26.1s-26.1,11.7-26.1,26.1 C415.1,253,426.8,264.7,441.2,264.7 M441.2,198.3c-22.2,0-40.2,18-40.2,40.2s18,40.2,40.2,40.2s40.2-18,40.2-40.2 C481.4,216.4,463.4,198.4,441.2,198.3L441.2,198.3z M441.2,263.7c-13.9,0-25.1-11.3-25.1-25.1s11.3-25.1,25.1-25.1 c13.9,0,25.1,11.3,25.1,25.1S455.1,263.7,441.2,263.7L441.2,263.7z"/></g><g><path class="st1" d="M40.2,1L40.2,1c21.6,0,39.2,17.6,39.2,39.2S61.8,79.4,40.2,79.4S1,61.9,1,40.2S18.6,1,40.2,1 M40.2,66.4 c14.4,0,26.1-11.7,26.1-26.1S54.7,14.1,40.2,14.1S14.1,25.8,14.1,40.2S25.8,66.4,40.2,66.4 M40.2,0C18,0,0,18,0,40.2 s18,40.2,40.2,40.2s40.2-18,40.2-40.2S62.4,0,40.2,0L40.2,0z M40.2,65.4c-13.9,0-25.1-11.3-25.1-25.1s11.3-25.1,25.1-25.1 s25.1,11.3,25.1,25.1S54.1,65.4,40.2,65.4L40.2,65.4z"/></g><g><path class="st1" d="M40.2,199L40.2,199c21.6,0,39.2,17.6,39.2,39.2s-17.6,39.2-39.2,39.2S1,259.9,1,238.2S18.6,199,40.2,199 M40.2,264.4c14.4,0,26.1-11.7,26.1-26.1s-11.7-26.1-26.1-26.1s-26.1,11.7-26.1,26.1S25.8,264.4,40.2,264.4 M40.2,198 C18,198,0,216,0,238.2s18,40.2,40.2,40.2s40.2-18,40.2-40.2S62.4,198,40.2,198L40.2,198z M40.2,263.4 c-13.9,0-25.1-11.3-25.1-25.1s11.3-25.1,25.1-25.1s25.1,11.3,25.1,25.1S54.1,263.4,40.2,263.4L40.2,263.4z"/></g><g><path class="st1" d="M440.8,1.4L440.8,1.4C462.4,1.4,480,19,480,40.6s-17.6,39.2-39.2,39.2s-39.2-17.6-39.2-39.2 S419.2,1.4,440.8,1.4 M440.8,66.8c14.4,0,26.1-11.7,26.1-26.1s-11.7-26.1-26.1-26.1s-26.1,11.7-26.1,26.1S426.4,66.8,440.8,66.8 M440.8,0.4c-22.2,0-40.2,18-40.2,40.2s18,40.2,40.2,40.2s40.2-18,40.2-40.2C481,18.5,463,0.5,440.8,0.4L440.8,0.4z M440.8,65.8 c-13.9,0-25.1-11.3-25.1-25.1s11.3-25.1,25.1-25.1s25.1,11.3,25.1,25.1S454.7,65.8,440.8,65.8L440.8,65.8z"/></g><g><g><path class="st2" d="M480.5,1.4v275.7H402V1.4H480.5 M481.5,0.4H401v277.7h80.5V0.4L481.5,0.4z"/></g><g><path class="st2" d="M481,199.1v78.5H1v-78.5H481 M482,198.1H0v80.5h482V198.1L482,198.1z"/></g><g><path class="st2" d="M481,1.4v78.5H1V1.4H481 M482,0.4H0v80.5h482V0.4L482,0.4z"/></g><g><path class="st2" d="M79.5,1.4v275.7H1V1.4H79.5 M80.5,0.4H0v277.7h80.5V0.4L80.5,0.4z"/></g></g></g></g></svg>